<?xml version="1.0" standalone="no"?>
<!DOCTYPE svg PUBLIC "-//W3C//DTD SVG 20010904//EN"
 "http://www.w3.org/TR/2001/REC-SVG-20010904/DTD/svg10.dtd">
<svg version="1.0" xmlns="http://www.w3.org/2000/svg"
 width="2102.000000pt" height="995.000000pt" viewBox="0 0 2102.000000 995.000000"
 preserveAspectRatio="xMidYMid meet">

<g transform="translate(0.000000,995.000000) scale(0.100000,-0.100000)"
fill="#be5e22" stroke="none">
<path d="M7414 9790 c-73 -11 -118 -27 -185 -67 -66 -39 -133 -108 -123 -125
4 -7 3 -8 -4 -4 -15 9 -52 -51 -44 -72 3 -9 1 -13 -5 -9 -14 9 -53 -135 -53
-194 1 -71 35 -209 52 -209 5 0 7 -4 4 -9 -10 -16 82 -128 136 -167 49 -35
138 -84 153 -84 3 0 3 5 -1 12 -4 7 -3 8 5 4 6 -4 9 -11 7 -15 -7 -11 83 -53
96 -45 6 4 8 3 5 -3 -6 -10 147 -90 403 -211 58 -27 167 -80 243 -116 76 -37
143 -63 149 -60 6 4 8 3 4 -4 -3 -6 2 -13 13 -17 30 -9 33 -32 10 -80 -11 -24
-17 -49 -13 -56 4 -8 3 -9 -4 -5 -7 4 -16 -2 -21 -16 -5 -13 -23 -52 -40 -87
-17 -35 -28 -69 -24 -75 3 -6 3 -8 -2 -4 -10 10 -87 -141 -78 -155 3 -7 2 -9
-2 -4 -11 9 -78 -121 -69 -134 3 -6 15 -9 25 -6 11 3 22 -1 27 -8 11 -20 211
-117 225 -109 7 4 8 3 4 -2 -5 -5 31 -27 79 -51 l88 -42 40 32 c92 73 233 148
351 186 128 41 175 50 310 61 118 9 266 1 363 -21 24 -5 48 -6 54 -3 6 4 8 3
5 -3 -3 -5 31 -21 78 -36 46 -14 123 -45 172 -68 116 -54 405 -199 419 -210 6
-5 14 -6 17 -2 4 3 7 1 7 -5 0 -6 10 -14 23 -17 12 -4 66 -29 119 -56 54 -27
100 -49 103 -49 6 0 165 329 165 343 0 16 -101 127 -111 121 -5 -3 -8 -1 -7 5
4 15 -203 232 -215 224 -6 -3 -7 -1 -3 5 4 7 0 12 -10 12 -10 0 -14 3 -11 7 8
7 -19 36 -299 328 -105 110 -209 219 -229 242 -21 23 -43 39 -48 36 -6 -3 -7
-2 -4 4 4 5 -6 22 -21 36 -35 33 -198 111 -213 101 -7 -4 -9 -3 -6 3 8 13
-388 207 -404 197 -8 -4 -10 -3 -5 5 9 14 -398 216 -416 205 -6 -4 -8 -3 -5 3
8 13 -210 116 -225 107 -6 -4 -8 -3 -4 4 6 9 -149 95 -171 94 -4 0 -15 5 -23
12 -28 23 -137 76 -144 69 -3 -3 -6 -2 -6 4 0 10 -59 40 -72 36 -3 -1 -12 4
-18 12 -7 8 -17 15 -22 15 -6 0 -88 38 -182 83 -210 103 -296 125 -412 107z
m163 -462 c-3 -8 -6 -5 -6 6 -1 11 2 17 5 13 3 -3 4 -12 1 -19z m-183 -66 c3
-5 -1 -9 -9 -9 -8 0 -12 4 -9 9 3 4 7 8 9 8 2 0 6 -4 9 -8z m1224 -567 c-3 -3
-9 2 -12 12 -6 14 -5 15 5 6 7 -7 10 -15 7 -18z m-621 -130 c0 -8 -4 -12 -9
-9 -5 3 -6 10 -3 15 9 13 12 11 12 -6z"/>
<path d="M6877 9280 c-21 -28 -35 -55 -32 -61 4 -5 1 -8 -7 -7 -7 2 -12 -5
-12 -14 1 -9 -4 -15 -10 -12 -11 4 -45 -41 -161 -207 -104 -150 -126 -180
-244 -339 -64 -85 -115 -157 -114 -160 1 -3 -5 -9 -13 -13 -8 -4 -14 -13 -14
-19 0 -5 -17 -31 -38 -57 -21 -25 -44 -56 -52 -67 -15 -21 -87 -122 -125 -174
-11 -15 -40 -56 -65 -91 -24 -35 -53 -73 -63 -84 -10 -11 -49 -63 -85 -115
-70 -100 -255 -358 -269 -375 -8 -9 -55 -72 -165 -223 -22 -29 -36 -57 -32
-64 4 -6 3 -8 -4 -4 -14 8 -55 -50 -46 -65 4 -8 3 -9 -4 -5 -9 6 -40 -33 -33
-42 2 -2 -1 -7 -5 -10 -4 -4 -4 -1 1 7 6 10 4 12 -4 7 -7 -5 -10 -14 -7 -22 3
-8 1 -13 -4 -11 -5 1 -41 -40 -80 -92 l-70 -94 25 -31 c14 -17 55 -74 92 -126
37 -52 79 -106 93 -119 14 -13 19 -21 12 -17 -7 4 2 -13 20 -38 17 -25 35 -46
40 -46 4 0 8 -5 8 -10 0 -6 42 -67 93 -136 112 -154 124 -170 161 -222 16 -23
33 -39 37 -36 5 3 8 1 7 -4 -4 -14 142 -223 152 -217 5 3 12 0 16 -6 4 -8 3
-9 -4 -5 -23 14 -12 -9 31 -65 74 -98 86 -111 96 -104 6 3 8 0 5 -9 -3 -8 25
-55 68 -114 40 -55 91 -126 113 -157 52 -74 335 -458 342 -465 4 -3 3 2 -2 10
-5 8 -4 12 0 7 5 -4 10 -14 11 -22 2 -13 40 -74 54 -85 3 -3 16 -22 29 -43 13
-20 27 -34 33 -31 6 4 8 3 5 -3 -4 -5 13 -37 37 -69 23 -32 59 -83 79 -112 54
-76 79 -102 90 -95 6 3 7 1 3 -5 -4 -6 7 -30 24 -53 l30 -42 0 74 c1 90 19
179 49 237 12 23 19 48 15 55 -4 7 -4 9 0 5 5 -4 29 19 55 51 66 83 174 153
465 297 l251 124 -376 0 c-278 0 -378 3 -387 12 -9 9 -12 93 -12 315 l0 302
-112 3 -113 3 -3 993 -2 992 115 0 115 0 2 313 3 312 445 3 444 2 -264 134
c-146 73 -294 146 -330 162 -36 16 -69 32 -75 36 -63 50 -104 76 -110 70 -5
-4 -5 -2 -2 4 7 12 -25 47 -36 39 -4 -3 -5 -2 -2 1 2 4 -7 20 -21 37 -14 16
-37 53 -51 81 -14 28 -28 53 -32 56 -3 3 -6 10 -6 15 -1 6 -6 42 -13 80 -6 39
-13 83 -14 98 -3 28 -4 27 -41 -23z m-663 -969 c3 -5 -2 -15 -12 -22 -15 -12
-16 -12 -5 2 7 9 10 19 6 22 -3 4 -4 7 0 7 3 0 8 -4 11 -9z m-251 -336 c-3 -9
-8 -14 -10 -11 -3 3 -2 9 2 15 9 16 15 13 8 -4z m-273 -966 c0 -3 20 -14 45
-23 25 -10 45 -22 45 -28 0 -7 -4 -7 -12 0 -7 6 -32 18 -56 27 l-43 18 -47
-32 -47 -33 35 32 c19 17 34 35 33 39 -1 4 9 7 23 7 13 0 24 -3 24 -7z m-50
-91 c0 -5 4 -7 9 -3 14 8 61 -16 54 -28 -4 -6 0 -8 11 -4 11 5 15 3 10 -5 -5
-8 -2 -9 9 -5 9 3 19 2 22 -3 3 -4 -5 -7 -17 -5 -35 4 -108 36 -108 47 0 5 -4
6 -10 3 -5 -3 -10 1 -10 9 0 10 6 13 15 10 8 -4 15 -10 15 -16z m-53 -55 c-3
-10 -5 -2 -5 17 0 19 2 27 5 18 2 -10 2 -26 0 -35z m200 15 c-3 -7 -5 -2 -5
12 0 14 2 19 5 13 2 -7 2 -19 0 -25z m-102 -96 c-2 -3 -20 3 -39 12 -19 9 -38
16 -44 16 -5 0 -12 6 -15 13 -3 8 16 3 49 -12 29 -14 51 -27 49 -29z m55 23
c0 -2 -10 -9 -22 -15 -22 -11 -22 -10 -4 4 21 17 26 19 26 11z"/>
<path d="M5660 6900 c8 -5 20 -10 25 -10 6 0 3 5 -5 10 -8 5 -19 10 -25 10 -5
0 -3 -5 5 -10z"/>
<path d="M11580 7010 l0 -2201 1123 4 c1148 4 1155 4 1387 42 223 36 427 109
501 178 13 12 24 20 25 17 3 -11 143 103 199 161 89 93 230 289 208 289 -3 0
1 8 9 18 20 21 51 82 43 82 -4 0 0 7 8 15 20 20 63 152 82 250 48 250 19 580
-69 769 -99 215 -328 446 -486 491 -58 17 -125 65 -89 65 5 0 8 4 4 9 -3 5 0
13 6 17 8 4 9 3 5 -4 -4 -7 -3 -12 2 -12 15 0 182 111 182 121 0 5 6 9 13 9
19 0 99 85 90 95 -5 4 -3 5 3 2 17 -10 98 113 135 203 119 288 109 674 -25
956 -53 111 -132 228 -148 218 -6 -4 -8 -3 -5 3 8 13 -57 76 -68 66 -4 -5 -5
-3 -2 4 4 6 -7 23 -25 37 -18 15 -39 31 -45 36 -25 20 -99 68 -143 92 -130 70
-234 105 -420 140 -114 22 -127 22 -1307 25 l-1193 4 0 -2201z m2014 1450
c155 -13 299 -42 369 -74 53 -24 152 -115 163 -148 3 -10 9 -16 13 -14 4 3 7
-3 7 -12 1 -9 9 -44 18 -77 21 -76 21 -241 1 -320 -19 -73 -57 -144 -99 -183
-64 -62 -201 -119 -339 -142 -56 -9 -1275 -15 -1284 -6 -6 6 -4 953 3 970 6
14 53 16 514 16 279 0 564 -5 634 -10z m236 -1727 c98 -23 143 -41 214 -85 28
-17 56 -31 63 -31 7 0 11 -5 10 -11 -1 -6 5 -9 13 -8 8 2 12 0 8 -4 -4 -4 7
-23 24 -42 69 -79 110 -223 107 -376 -6 -308 -147 -509 -404 -579 -125 -33
-238 -38 -835 -35 l-585 3 -3 585 c-1 322 0 591 3 598 4 11 125 12 652 9 607
-3 653 -5 733 -24z"/>
<path d="M12537 8373 c-4 -3 -7 -188 -7 -410 l0 -403 145 0 145 0 2 318 c1
174 2 326 2 337 1 20 9 20 516 23 283 1 551 -2 595 -7 44 -5 82 -8 84 -6 2 2
-14 20 -34 40 -66 62 -192 91 -455 105 -199 11 -983 13 -993 3z"/>
<path d="M12532 6163 l3 -508 143 -3 c130 -2 142 -1 142 15 1 10 0 205 0 434
-1 357 1 418 14 428 20 17 1193 14 1216 -3 8 -6 6 0 -4 12 -35 40 -128 85
-228 108 -64 15 -150 18 -681 21 l-607 4 2 -508z"/>
<path d="M16608 8980 l-3 -140 43 0 43 0 -3 -37 c-3 -35 -6 -38 -37 -40 -19
-2 -36 -4 -37 -6 -2 -2 -4 -97 -4 -212 l-2 -210 152 -5 c83 -3 157 -2 164 2
10 6 13 -3 12 -35 l-1 -42 -162 -3 c-131 -2 -163 -5 -163 -16 0 -8 -3 -22 -7
-32 -3 -10 -2 -15 3 -12 5 4 8 -71 6 -187 l-3 -192 38 0 c37 1 38 0 41 -36 3
-36 3 -37 -33 -37 -21 0 -38 -6 -41 -14 -3 -7 -6 -696 -7 -1530 l-2 -1516 573
0 572 0 0 728 -1 727 291 3 c159 1 290 6 290 10 0 15 -86 92 -95 85 -4 -5 -5
-3 -2 3 7 12 -65 87 -76 79 -4 -3 -5 -2 -2 2 7 8 -136 154 -145 148 -3 -2 -7
7 -8 21 l-2 24 520 0 c478 0 555 -4 520 -25 -6 -4 -7 -11 -4 -17 4 -6 2 -8 -3
-5 -13 8 -46 -27 -36 -38 5 -4 3 -5 -3 -2 -14 8 -47 -26 -37 -38 5 -4 3 -5 -3
-2 -14 8 -227 -206 -217 -218 4 -4 3 -5 -3 -2 -7 4 -17 0 -24 -8 -10 -12 27
-14 281 -15 161 0 294 -2 296 -4 2 -2 3 -330 3 -730 l0 -726 575 0 575 0 0
1530 0 1530 -44 0 c-50 0 -66 14 -56 50 5 22 11 25 53 24 l47 0 0 218 0 218
-177 2 -178 3 -3 29 c-2 16 1 33 7 39 6 6 75 9 180 8 l171 -2 0 214 c0 117 -2
216 -5 219 -3 3 -25 2 -49 -2 l-43 -6 1 40 1 41 48 3 47 3 0 140 0 139 -575 0
-575 0 0 -140 0 -140 46 0 45 0 -3 -37 c-3 -37 -4 -38 -45 -41 l-43 -3 0 -215
c0 -164 3 -214 13 -215 6 0 82 -1 167 -2 l155 -2 0 -35 0 -35 -165 -2 -165 -2
-2 -215 c-2 -184 0 -216 12 -217 8 -1 21 -2 28 -3 6 -1 19 1 28 5 13 6 16 0
18 -37 l2 -44 -38 -1 c-21 -1 -42 -1 -46 0 -5 1 -7 -53 -6 -119 l2 -120 -771
-3 -772 -2 0 123 0 122 -44 0 c-43 0 -44 1 -48 35 -3 24 1 40 11 48 8 7 12 7
8 1 -4 -7 8 -10 33 -10 l39 0 -2 219 -2 218 -175 2 -175 2 0 35 c0 21 5 36 13
36 6 1 86 2 177 3 l165 1 0 215 0 215 -22 1 c-13 1 -33 0 -45 -1 -20 -1 -23 3
-23 39 l0 41 45 0 45 0 0 140 0 140 -569 0 -570 0 -3 -140z m380 -174 c2 -16
-2 -32 -10 -37 -14 -9 -168 -12 -190 -4 -9 4 -13 17 -10 41 l4 35 102 -3 101
-3 3 -29z m287 -6 l0 -35 -100 0 -100 0 -3 38 -3 38 103 -3 103 -3 0 -35z
m293 3 l-3 -38 -100 0 c-97 0 -100 1 -103 23 -7 48 1 52 108 52 l101 0 -3 -37z
m2103 22 c5 -65 14 -60 -101 -60 -102 0 -105 1 -108 23 -7 48 1 52 108 52 82
0 100 -3 101 -15z m294 -25 l0 -35 -100 0 -100 0 -3 38 -3 38 103 -3 103 -3 0
-35z m292 28 c5 -7 7 -24 3 -38 -6 -25 -8 -25 -105 -25 -97 0 -100 1 -103 23
-7 48 1 52 101 52 64 0 98 -4 104 -12z m-3021 -509 c5 1 9 -14 9 -31 l0 -33
-73 -5 c-82 -6 -95 1 -90 47 3 26 6 28 58 31 30 1 60 4 65 6 6 2 13 -1 16 -6
3 -5 10 -9 15 -9z m2699 -29 l0 -35 -80 0 c-76 0 -80 1 -83 23 -7 45 2 50 85
48 l78 -1 0 -35z m-69 -479 c43 1 85 1 92 0 14 -1 16 -53 3 -66 -6 -6 -53 -9
-106 -7 l-96 3 2 44 c2 32 6 42 14 35 7 -5 47 -9 91 -9z m306 5 l85 9 2 -42 2
-43 -106 0 -106 0 2 44 c2 38 5 43 19 34 11 -7 45 -8 102 -2z m-3182 -36 l-5
-35 -103 -3 -102 -3 0 34 c0 19 2 36 4 38 3 2 51 4 108 4 l104 0 -6 -35z m288
6 c6 -46 -7 -51 -112 -48 l-96 3 0 33 c0 18 2 35 4 37 2 2 49 3 103 3 l98 -1
3 -27z m290 -9 l3 -37 -105 0 -106 0 0 33 c0 19 2 36 4 38 2 2 49 4 103 4 l98
0 3 -38z m2102 2 c0 -37 -1 -39 -32 -40 -109 -2 -158 0 -167 6 -15 9 -14 62 2
68 6 2 54 4 105 5 l92 0 0 -39z m-760 -1442 c0 -2 -10 -12 -22 -23 l-23 -19
19 23 c18 21 26 27 26 19z m-80 -80 c0 -2 -10 -12 -22 -23 l-23 -19 19 23 c18
21 26 27 26 19z"/>
<path d="M14724 8999 c22 -18 40 -28 48 -23 7 4 10 4 6 -1 -4 -4 26 -43 67
-87 41 -43 93 -112 116 -153 23 -41 47 -71 52 -68 6 3 7 1 3 -6 -4 -6 -2 -18
4 -26 7 -8 9 -15 6 -15 -4 0 0 -12 8 -27 26 -48 67 -194 83 -298 20 -135 12
-405 -16 -525 -56 -240 -168 -414 -350 -545 l-53 -38 52 -31 c176 -104 305
-244 398 -431 89 -180 118 -301 129 -521 9 -215 -26 -431 -97 -593 -15 -36
-30 -73 -32 -81 -2 -8 -7 -19 -11 -25 -26 -34 -94 -154 -84 -148 7 4 2 -4 -10
-18 -12 -13 -46 -55 -75 -94 -28 -38 -62 -78 -75 -88 -13 -10 -20 -24 -16 -30
3 -7 3 -9 -2 -5 -4 4 -34 -15 -66 -42 -52 -43 -256 -184 -269 -185 -3 -1 -27
-11 -53 -23 -113 -53 -301 -101 -497 -126 -160 -21 -392 -26 -1293 -26 -559 0
-1007 -4 -1005 -9 7 -20 79 -91 87 -86 5 2 8 -3 7 -13 -1 -16 62 -17 1124 -20
750 -2 1163 1 1240 8 235 22 463 71 594 127 243 103 392 216 532 400 54 71 65
91 42 77 -7 -4 -8 -3 -4 5 4 6 11 9 16 6 9 -6 119 182 128 219 3 11 11 30 18
41 7 11 13 22 13 25 0 3 5 19 11 35 44 113 87 403 75 502 -2 15 -6 66 -10 112
-6 86 -41 248 -56 265 -5 6 -9 16 -9 24 0 25 -85 201 -124 257 -38 54 -80 100
-89 97 -5 -1 -6 2 -3 7 12 19 -195 188 -215 175 -7 -4 -9 -3 -5 4 3 6 -11 20
-34 33 -22 13 -39 26 -38 30 2 3 37 33 78 66 209 165 319 384 351 696 18 177
-3 379 -57 542 -29 89 -105 242 -141 285 -12 15 -23 32 -23 37 0 18 -127 141
-204 198 -70 51 -276 165 -298 165 -5 0 7 -14 26 -31z"/>
<path d="M2840 6895 l0 -1025 95 0 95 0 0 1025 0 1025 -95 0 -95 0 0 -1025z"/>
<path d="M3160 6895 l0 -1025 170 0 170 0 0 1025 0 1025 -170 0 -170 0 0
-1025z"/>
<path d="M3630 6895 l0 -1025 95 0 95 0 0 1025 0 1025 -95 0 -95 0 0 -1025z"/>
<path d="M4832 7682 l-672 -2 2 -788 3 -787 690 -3 c380 -1 696 0 703 3 16 6
-2 33 -182 276 -281 379 -349 476 -343 494 5 12 112 164 309 437 30 42 71 96
90 120 46 57 168 235 168 245 0 4 -21 8 -48 8 -26 0 -350 -1 -720 -3z"/>
<path d="M1288 7502 c-26 -3 -22 -8 51 -62 77 -57 157 -142 197 -211 12 -19
40 -68 64 -109 24 -41 83 -138 130 -215 90 -145 225 -369 324 -537 l57 -98
310 0 309 0 -2 618 -3 617 -705 0 c-388 0 -717 -1 -732 -3z"/>
<path d="M634 7480 c-287 -75 -496 -320 -534 -625 -17 -138 20 -322 89 -438
41 -70 476 -793 639 -1062 47 -77 159 -264 250 -415 91 -151 205 -338 252
-415 48 -77 138 -225 200 -330 62 -104 181 -301 264 -437 83 -136 165 -271
182 -299 l32 -53 27 55 c221 441 606 704 1093 745 45 3 82 9 82 12 0 3 -24 44
-53 91 -30 47 -97 158 -149 246 -52 88 -139 232 -193 320 -93 152 -203 335
-273 455 -18 30 -51 84 -74 120 -22 36 -138 227 -257 425 -120 198 -262 434
-317 525 -56 91 -130 215 -166 275 -246 415 -338 555 -417 632 -81 79 -216
152 -328 177 -98 22 -258 20 -349 -4z"/>
<path d="M3890 6895 l0 -205 90 0 90 0 0 205 0 205 -90 0 -90 0 0 -205z"/>
<path d="M10417 6361 c-64 -31 -114 -61 -110 -65 4 -4 1 -4 -7 -1 -9 3 -118
-47 -245 -111 -127 -64 -265 -131 -307 -149 -43 -18 -76 -34 -74 -36 2 -2 -9
-5 -25 -6 -16 -1 -48 -9 -71 -16 -129 -44 -434 -47 -592 -7 -151 39 -260 84
-366 154 -30 20 -61 34 -68 31 -7 -3 -11 -1 -7 4 3 5 -13 24 -36 41 l-40 33
-52 -27 c-230 -117 -277 -143 -270 -151 5 -4 3 -5 -4 -1 -9 5 -102 -32 -121
-49 -2 -2 44 -97 101 -211 125 -251 182 -373 176 -378 -2 -2 -114 -59 -249
-125 -135 -67 -254 -127 -265 -133 -36 -20 -49 -27 -90 -44 -132 -57 -411
-197 -472 -238 -40 -26 -89 -67 -109 -89 -69 -81 -114 -210 -114 -326 0 -103
80 -302 119 -293 7 1 10 -2 6 -8 -9 -15 65 -82 127 -113 60 -29 169 -57 230
-57 47 0 154 25 210 49 136 58 338 164 332 173 -5 7 -2 8 5 4 12 -8 170 67
182 86 3 5 8 9 10 7 11 -6 48 14 43 23 -4 7 -2 8 4 4 6 -4 31 3 54 16 24 12
45 23 48 23 28 5 49 18 44 27 -4 6 -2 8 3 5 12 -8 315 136 315 149 0 5 2 11 5
14 4 3 3 -1 -1 -7 -4 -7 -5 -13 -3 -13 18 0 535 269 529 275 -4 5 -2 5 4 2 17
-10 86 21 78 35 -5 7 -3 8 5 3 20 -12 113 35 106 53 -4 12 -3 13 10 2 8 -7 15
-8 15 -3 0 5 6 10 13 10 6 0 57 22 112 48 94 45 106 54 220 173 66 69 158 164
205 212 169 172 375 394 372 403 -1 5 2 6 7 3 7 -5 82 71 248 253 24 25 43 51
43 56 -1 6 -38 85 -83 177 l-82 167 -118 -58z m-2840 -1923 c-3 -8 -6 -5 -6 6
-1 11 2 17 5 13 3 -3 4 -12 1 -19z"/>
<path d="M3090 4083 c-283 -37 -519 -150 -705 -337 -152 -152 -265 -342 -310
-521 -96 -378 -20 -749 213 -1040 228 -284 560 -445 916 -445 310 0 596 114
817 327 322 310 438 759 308 1198 -90 305 -336 582 -635 714 -198 88 -425 127
-604 104z m310 -408 c84 -20 230 -92 302 -149 206 -164 324 -454 289 -709 -46
-326 -292 -601 -602 -670 -37 -8 -114 -15 -172 -16 -343 -6 -632 197 -750 525
-100 279 -27 593 188 809 44 45 108 98 142 119 78 46 202 92 285 105 80 12
234 5 318 -14z"/>
<path d="M3027 3601 c-499 -139 -693 -735 -369 -1137 91 -112 228 -201 372
-240 88 -25 271 -24 360 0 300 82 510 339 527 646 18 319 -171 603 -477 716
-65 24 -93 28 -210 31 -109 2 -148 -1 -203 -16z"/>
<path d="M8600 3393 c-61 -5 -150 -25 -150 -35 0 -5 -4 -6 -10 -3 -22 13 -176
-78 -164 -97 4 -6 3 -8 -3 -5 -13 8 -55 -22 -47 -34 3 -5 0 -8 -7 -7 -16 4
-92 -95 -128 -167 -61 -124 -76 -193 -76 -345 0 -72 6 -126 18 -170 22 -77 71
-186 99 -221 11 -13 16 -17 12 -9 -4 9 -3 12 2 7 5 -5 9 -15 9 -23 0 -23 127
-145 144 -139 9 3 12 3 9 -1 -13 -12 75 -69 119 -77 10 -2 25 -7 33 -10 80
-33 288 -37 400 -6 82 22 187 78 182 98 -1 7 2 10 7 6 15 -8 87 60 128 122 36
55 72 138 78 183 2 14 7 40 11 58 l7 32 -164 0 -164 0 -24 -65 c-45 -118 -126
-176 -250 -176 -84 0 -136 13 -181 46 -21 16 -42 23 -54 20 -20 -6 -20 -5 -2
6 10 6 14 14 9 18 -16 11 -60 94 -79 151 -15 42 -19 83 -19 175 1 119 1 121
40 200 21 44 38 85 36 90 -1 6 1 7 4 3 4 -4 16 3 25 15 10 13 42 36 72 52 46
25 64 29 138 30 74 0 93 -4 143 -28 32 -16 65 -40 73 -53 9 -13 20 -21 25 -18
5 3 8 2 7 -3 -1 -4 6 -29 16 -55 l19 -48 164 0 165 0 -7 43 c-19 112 -82 215
-183 300 -66 56 -92 71 -181 103 -58 21 -210 46 -251 41 -8 -1 -31 -3 -50 -4z"/>
<path d="M13695 3390 c-71 -8 -165 -34 -215 -60 -57 -29 -141 -100 -134 -112
4 -6 3 -8 -4 -4 -19 12 -99 -105 -86 -126 4 -7 3 -8 -4 -4 -14 8 -36 -30 -26
-46 4 -7 3 -8 -4 -4 -7 4 -21 -23 -38 -76 -26 -76 -28 -96 -28 -243 -1 -129 3
-171 18 -219 30 -96 65 -168 78 -160 7 4 8 3 4 -5 -20 -32 133 -189 233 -239
99 -49 192 -65 340 -59 92 4 142 11 186 26 75 27 141 64 138 79 -2 6 3 9 11 6
16 -6 135 109 156 151 8 17 21 36 28 43 11 12 14 21 11 38 0 4 3 10 8 13 14 9
41 90 54 161 31 168 5 369 -65 515 -62 130 -238 287 -308 276 -5 0 -8 3 -8 8
0 25 -238 54 -345 41z m380 -70 c3 -6 -1 -7 -9 -4 -18 7 -21 14 -7 14 6 0 13
-4 16 -10z m-153 -230 c109 -48 177 -174 185 -345 6 -125 -13 -217 -63 -297
-19 -32 -33 -62 -29 -67 3 -5 0 -13 -6 -17 -8 -4 -9 -3 -5 4 12 20 -14 13 -48
-13 -41 -32 -126 -53 -190 -48 -113 9 -213 87 -257 201 -28 73 -38 257 -18
341 7 31 13 58 14 61 3 17 42 81 71 116 72 89 225 118 346 64z"/>
<path d="M15141 3389 c-156 -20 -248 -66 -362 -179 -81 -80 -142 -197 -164
-314 -18 -94 -21 -281 -5 -351 16 -76 42 -149 54 -157 6 -4 8 -8 3 -8 -12 0
22 -60 62 -111 46 -58 106 -111 115 -101 4 4 6 1 4 -7 -4 -19 80 -70 171 -103
43 -16 90 -22 205 -26 101 -3 147 -1 142 6 -4 6 2 8 13 5 48 -12 270 93 254
120 -3 7 -2 9 2 4 11 -10 66 43 58 56 -3 6 -1 7 5 3 14 -9 86 80 76 95 -4 7
-3 9 4 5 9 -6 47 73 42 90 -1 4 3 10 10 14 37 23 64 312 40 432 -23 122 -71
235 -93 221 -6 -3 -7 -1 -3 5 4 6 -1 26 -9 43 -24 45 -147 161 -205 193 -99
54 -287 83 -419 65z m244 -309 c82 -41 128 -114 160 -255 10 -46 6 -201 -7
-253 -27 -110 -71 -178 -143 -224 -50 -32 -92 -41 -173 -40 -53 1 -75 7 -127
36 -35 19 -65 33 -67 30 -3 -2 -5 2 -5 8 0 7 -16 36 -36 65 -103 152 -84 456
36 581 90 95 235 115 362 52z"/>
<path d="M19695 3390 c-154 -21 -306 -110 -407 -240 -131 -168 -172 -435 -103
-673 9 -31 20 -55 25 -52 5 3 12 0 16 -6 5 -8 3 -9 -6 -4 -9 6 -10 2 -5 -16
11 -39 41 -84 53 -82 6 2 9 -4 5 -12 -13 -37 254 -254 281 -228 3 3 6 2 6 -4
0 -5 34 -18 75 -28 86 -20 282 -19 307 3 8 6 17 9 20 6 11 -11 105 45 157 94
29 27 54 44 56 38 3 -6 8 -38 12 -71 l8 -60 103 -3 102 -3 0 356 0 355 -265 0
-265 0 0 -117 0 -118 110 2 c61 1 114 4 119 7 7 5 8 -4 2 -50 -3 -25 -64 -103
-99 -126 -80 -53 -241 -67 -327 -29 -27 12 -57 29 -67 37 -9 9 -22 13 -29 8
-8 -5 -10 -3 -4 5 4 7 -1 22 -13 34 -99 110 -116 378 -36 539 25 49 95 124
126 134 10 3 15 10 12 16 -4 6 -2 8 4 5 5 -4 33 -2 62 5 59 14 168 0 223 -28
36 -19 87 -68 87 -84 0 -6 4 -9 9 -6 5 3 9 0 8 -7 -2 -61 -13 -57 169 -57
l166 0 -7 38 c-17 91 -84 230 -105 217 -5 -3 -7 0 -4 8 11 28 -189 168 -216
152 -6 -4 -10 -2 -10 4 0 26 -248 55 -355 41z"/>
<path d="M5050 2710 l0 -660 155 0 155 0 2 500 c2 323 7 500 13 501 5 0 40
-107 77 -238 36 -131 99 -355 140 -498 l74 -260 125 -3 125 -3 12 48 c21 84
89 342 141 532 28 100 50 186 49 190 -1 3 2 13 5 21 4 8 20 60 35 114 16 55
34 102 40 104 9 3 12 -121 12 -502 l0 -506 155 0 155 0 0 660 0 660 -245 0
-244 0 -15 -52 c-70 -255 -96 -354 -149 -563 -33 -132 -63 -246 -66 -254 -16
-33 -28 -7 -64 129 -61 235 -187 731 -187 736 0 2 -112 4 -250 4 l-250 0 0
-660z"/>
<path d="M6780 2710 l0 -660 530 0 530 0 0 140 0 140 -366 2 -365 3 0 135 0
135 325 3 326 2 0 125 0 125 -323 0 c-178 0 -326 2 -328 4 -2 2 -3 59 -1 125
l3 121 355 0 354 0 0 130 0 130 -520 0 -520 0 0 -660z"/>
<path d="M9470 2710 l0 -660 160 0 160 0 2 278 3 277 235 0 235 0 3 -278 2
-277 163 2 162 3 2 630 c1 347 0 642 -4 658 l-5 27 -159 0 -159 0 0 -240 0
-239 -242 -3 -243 -3 3 243 3 242 -161 0 -160 0 0 -660z"/>
<path d="M11199 3343 c-6 -16 -12 -40 -13 -55 0 -14 -4 -24 -7 -22 -3 2 -26
-49 -49 -114 -24 -64 -51 -134 -62 -154 -10 -21 -17 -41 -16 -45 1 -9 -4 -24
-34 -93 -11 -25 -21 -49 -22 -55 -4 -13 -15 -44 -31 -80 -22 -51 -85 -224
-132 -360 -25 -71 -51 -143 -58 -160 -15 -35 -55 -143 -55 -151 0 -2 75 -3
166 -2 l165 3 40 114 c21 63 45 118 51 123 7 4 113 8 234 8 189 0 223 -2 235
-16 7 -8 29 -63 48 -122 l36 -107 168 -3 c92 -1 167 1 167 5 0 24 -68 182 -75
176 -4 -5 -5 -2 -1 5 9 16 -3 54 -15 47 -5 -3 -6 0 -3 8 5 13 -100 312 -186
532 -21 55 -62 161 -90 235 -29 74 -67 173 -85 220 l-32 85 -167 3 -166 2 -11
-27z m198 -371 c17 -45 134 -413 136 -427 2 -12 -310 -18 -317 -7 -2 4 9 48
25 97 16 50 27 96 24 103 -3 7 -1 11 3 8 5 -3 30 58 57 135 26 77 50 137 53
134 3 -3 12 -22 19 -43z"/>
<path d="M11901 3230 l0 -140 197 -2 197 -3 3 -517 2 -518 165 0 165 0 0 520
0 520 200 0 200 0 0 140 0 140 -564 0 -565 0 0 -140z"/>
<path d="M16100 3350 c0 -11 0 -299 0 -640 0 -341 0 -629 0 -640 0 -20 7 -20
470 -20 l470 0 0 140 0 140 -305 0 -305 0 -5 23 c-3 12 -4 239 -3 504 2 264 0
476 -4 470 -12 -18 -9 2 2 24 10 18 6 19 -155 19 -158 0 -165 -1 -165 -20z"/>
<path d="M17230 2709 l0 -659 165 0 165 0 0 660 0 661 -165 -1 -165 -2 0 -659z"/>
<path d="M17820 2710 l0 -660 150 0 150 0 2 410 c2 264 7 411 13 411 6 1 42
-54 81 -122 39 -68 77 -130 83 -136 7 -7 9 -13 6 -13 -3 0 4 -18 15 -40 13
-25 25 -38 32 -34 7 4 8 3 4 -5 -5 -7 16 -54 48 -110 31 -55 56 -102 56 -105
0 -5 79 -144 100 -176 6 -8 18 -30 27 -48 l17 -32 170 2 171 3 0 655 0 655
-152 3 -153 3 0 -405 c0 -235 -4 -407 -9 -411 -10 -6 -41 21 -41 36 0 6 -5 7
-12 3 -6 -4 -8 -3 -5 3 9 14 -31 95 -43 88 -6 -3 -7 1 -4 9 3 9 1 16 -6 16 -6
0 -9 4 -5 9 3 5 -1 15 -8 23 -7 7 -13 16 -13 19 2 17 -47 89 -56 83 -7 -4 -8
-2 -4 4 3 6 -2 26 -12 44 -41 73 -57 98 -65 98 -5 0 -6 4 -3 9 3 5 -4 24 -17
42 -12 19 -38 63 -56 99 -19 35 -55 101 -81 145 l-46 80 -167 3 -167 2 0 -660z"/>
<path d="M2310 1656 c0 -174 -3 -316 -7 -316 -5 0 -73 -2 -153 -3 -126 -3
-150 -6 -187 -25 -56 -29 -98 -83 -116 -151 -81 -296 -188 -734 -183 -746 5
-13 1100 -15 9667 -15 l9661 0 -5 23 c-3 12 -49 193 -102 402 -106 419 -115
441 -195 482 l-45 22 -8249 2 c-4537 1 -8258 4 -8268 7 -17 4 -18 22 -18 318
0 173 -4 314 -8 314 -5 0 -17 -10 -28 -21 -42 -47 -185 -143 -289 -194 -420
-206 -914 -173 -1303 86 -42 28 -90 63 -107 78 -71 64 -65 89 -65 -263z"/>
</g>
</svg>
